Format : AVI
Format/Info : Audio Video Interleave
File size : 739 MiB
Duration : 1h 18mn
Overall bit rate : 1 312 Kbps
Writing application : VirtualDubMod 1.5.10.2 (build 2540/release)
Writing library : VirtualDub build 32842/release

Video
ID : 0
Format : MPEG-4 Visual
Format profile : Advanced Simple@L5
Format settings, BVOP : 2
Format settings, QPel : No
Format settings, GMC : No warppoints
Format settings, Matrix : Default (H.263)
Muxing mode : Packed bitstream
Codec ID : XVID
Codec ID/Hint : XviD
Duration : 1h 18mn
Bit rate : 1 175 Kbps
Width : 672 pixels
Height : 282 pixels
Display aspect ratio : 2.40:1
Frame rate : 25.000 fps
Color space : YUV
Chroma subsampling : 4:2:0
Bit depth : 8 bits
Scan type : Progressive
Compression mode : Lossy
Bits/(Pixel*Frame) : 0.248
Stream size : 661 MiB (90%)
Writing library : XviD 64

Audio
ID : 1
Format : MPEG Audio
Format version : Version 1
Format profile : Layer 3
Mode : Joint stereo
Mode extension : MS Stereo
Codec ID : 55
Codec ID/Hint : MP3
Duration : 1h 18mn
Bit rate mode : Constant
Bit rate : 128 Kbps
Channel(s) : 2 channels
Sampling rate : 44.1 KHz
Compression mode : Lossy
Stream size : 72.1 MiB (10%)
Alignment : Split accross interleaves
Interleave, duration : 40 ms (1.00 video frame)
Interleave, preload duration : 500 ms










 
http://www.imdb.com/title/tt1482459/




Ratings: 6.5/10 from 2,947 users Metascore: 47/100 
Reviews: 48 user | 83 critic | 28 from Metacritic.com

A 12-year-old boy searches for the one thing that will enable him to win the affection of the girl of his dreams. To find it he must discover the story of the Lorax, the grumpy yet charming creature who fights to protect his world.

Directors:
Chris Renaud, Kyle Balda
Writers:
Ken Daurio (screenplay), Dr. Seuss (book), and 1 more credit ┬╗
Stars:
Zac Efron, Taylor Swift and Danny DeVito 






Source Used



Video ..............Lum1x..........Thanks

Audio................INSPiRAL V2 ................Thanks





Plenty filters but wont bore you to death just my take on it but check out the sample its needed 





Enjoy